Coordinates
version=1
nRows=20
nColumns=23
inDegrees=yes

Units are S.I. units (second, meters, Newtons, ...)
If the header above contains a line with 'inDegrees', this indicates whether rotational values are in degrees (yes) or radians (no).

endheader
time	pelvis_tilt	pelvis_list	pelvis_rotation	pelvis_tx	pelvis_ty	pelvis_tz	hip_flexion_r	hip_adduction_r	hip_rotation_r	knee_angle_r	knee_angle_r_beta	ankle_angle_r	subtalar_angle_r	mtp_angle_r	hip_flexion_l	hip_adduction_l	hip_rotation_l	knee_angle_l	knee_angle_l_beta	ankle_angle_l	subtalar_angle_l	mtp_angle_l
      0.00000000	     -9.09311664	     11.09257942	     10.45875116	      2.10588754	      0.98024871	      1.01215455	     10.07411147	    -19.08436643	    -14.30274355	    100.52977568	      1.75457558	    -18.91969634	    -24.70453983	      0.00000000	     34.68100648	     14.13470156	     -9.69224519	     47.65385858	      0.83171673	     20.11561971	     -1.45178283	      0.00000000
      0.00666667	     -8.75822162	     10.43413393	      9.93646944	      2.10368344	      0.97988093	      1.01319078	     12.39455715	    -17.99754581	    -12.47390164	    101.89023429	      1.77832006	    -17.85764934	    -24.48602084	      0.00000000	     33.36758040	     13.07974723	     -9.38971926	     48.54882175	      0.84733679	     21.95729180	     -0.87567930	      0.00000000
      0.01333333	     -8.57244986	      9.81401100	      9.33546055	      2.10147425	      0.97921062	      1.01433064	     14.86943295	    -16.89907755	    -10.60571113	    103.19092613	      1.80102142	    -16.82527269	    -24.20808719	      0.00000000	     32.15706618	     12.03505504	     -9.22522333	     49.30272702	      0.86049492	     23.77228539	     -0.31651916	      0.00000000
      0.02000000	     -8.51409950	      9.28680490	      8.70014162	      2.09938701	      0.97852490	      1.01545755	     17.42215319	    -15.87019314	     -8.76766108	    104.35251111	      1.82129490	    -15.80230263	    -23.90489531	      0.00000000	     30.95341513	     11.08815776	     -9.17996271	     49.81142766	      0.86937342	     25.38879033	      0.22716495	      0.00000000
      0.02666667	     -8.54979646	      8.85414819	      8.03802951	      2.09745149	      0.97802673	      1.01649150	     20.00336360	    -14.92741817	     -6.98858630	    105.30773433	      1.83796669	    -14.79179430	    -23.56965211	      0.00000000	     29.70476040	     10.25138931	     -9.24797805	     50.04235813	      0.87340391	     26.75033757	      0.69212492	      0.00000000
      0.03333333	     -8.71634706	      8.50306671	      7.36477582	      2.09572848	      0.97786411	      1.01746369	     22.64421775	    -14.05282495	     -5.28242364	    106.01277493	      1.85027197	    -13.80940128	    -23.22129657	      0.00000000	     28.42183698	      9.53522459	     -9.40149733	     49.94506945	      0.87170591	     27.75044309	      1.06346033	      0.00000000
      0.04000000	     -9.20523447	      8.28841344	      6.71655850	      2.09401003	      0.97765589	      1.01822609	     25.59250768	    -13.35676236	     -3.60496554	    106.52031481	      1.85913021	    -12.84403836	    -22.93795101	      0.00000000	     27.36964092	      9.05696365	     -9.59286399	     49.61022263	      0.86586173	     28.44659736	      1.35186815	      0.00000000
      0.04666667	     -9.29459336	      7.95612385	      6.13747503	      2.09299073	      0.97896030	      1.01891692	     27.84205345	    -12.51699415	     -2.33654172	    106.50783766	      1.85891245	    -11.86170830	    -22.65543524	      0.00000000	     25.66170969	      8.49333784	     -9.63981379	     48.87724494	      0.85306885	     28.78474349	      1.35261953	      0.00000000
      0.05333333	     -9.63500424	      7.66422125	      5.47590009	      2.09213725	      0.98046894	      1.01970211	     30.32184565	    -11.65397680	     -1.05256068	    106.23331445	      1.85412111	    -10.96323348	    -22.35119977	      0.00000000	     24.12188094	      7.93808567	     -9.93638335	     47.93941049	      0.83670055	     28.94104570	      1.76247266	      0.00000000
      0.06000000	    -10.10939203	      7.34059436	      4.84050742	      2.09153777	      0.98237565	      1.02049111	     32.81535444	    -10.74813784	      0.05746538	    105.64447927	      1.84384400	    -10.11147581	    -22.11022712	      0.00000000	     22.63942732	      7.36659049	    -10.30344396	     46.83633208	      0.81744820	     28.99842564	      2.40308818	      0.00000000
      0.06666667	    -10.58723633	      6.92674996	      4.26450245	      2.09135224	      0.98494818	      1.02123907	     35.11395977	     -9.77122285	      0.89245865	    104.68056028	      1.82702044	     -9.29573369	    -21.94340069	      0.00000000	     21.07424686	      6.72769576	    -10.67119015	     45.57100540	      0.79536409	     28.94291613	      3.21645504	      0.00000000
      0.07333333	    -11.17355056	      6.43822613	      4.06539109	      2.09147227	      0.98811701	      1.02133178	     37.24844996	     -8.98599140	      1.24049655	    103.34038865	      1.80363003	     -8.58870882	    -21.89861730	      0.00000000	     19.57626473	      6.30986190	    -10.39977463	     44.14691530	      0.77050903	     28.73561152	      3.72771927	      0.00000000
      0.08000000	    -10.39141250	      5.10966561	      3.24763559	      2.09307538	      0.99398167	      1.02303313	     37.53536694	     -6.89085290	      1.16238664	    101.27648942	      1.76760820	     -7.94160784	    -22.07218337	      0.00000000	     16.50838460	      4.16196328	    -11.74167736	     42.74926131	      0.74611536	     28.39766789	      6.25869497	      0.00000000
      0.08666667	    -10.04517342	      4.02220912	      2.84292579	      2.09462837	      0.99969597	      1.02372867	     38.12702682	     -5.42234684	      0.88747698	     99.03296249	      1.72845126	     -7.27117667	    -22.14429954	      0.00000000	     13.88381017	      2.74530816	    -12.28756754	     41.10823576	      0.71747406	     27.51671438	      7.61273171	      0.00000000
      0.09333333	     -9.74256285	      2.91617933	      2.54813752	      2.09647403	      1.00577717	      1.02418615	     38.58497019	     -4.06585260	      0.44110094	     96.51077052	      1.68443071	     -6.63760094	    -22.25535509	      0.00000000	     11.28967113	      1.39591692	    -12.77093552	     39.31696656	      0.68621052	     25.95341619	      8.61774416	      0.00000000
      0.10000000	     -9.54383164	      1.85607195	      2.29227363	      2.09849322	      1.01197077	      1.02448549	     39.01826362	     -2.83440080	     -0.06376662	     93.77073050	      1.63660799	     -6.02005211	    -22.36962870	      0.00000000	      8.82332683	      0.16515639	    -13.25940857	     37.42795346	      0.65324102	     23.74380265	      9.26634593	      0.00000000
      0.10666667	    -10.45951769	      1.35349045	      2.00203412	      2.09986448	      1.01628887	      1.02474437	     40.77624109	     -2.18086780	     -0.18265927	     91.18470630	      1.59147335	     -5.24716878	    -22.24283112	      0.00000000	      7.71932716	     -0.36645834	    -13.79961863	     35.72118446	      0.62345228	     20.97857353	      9.55265067	      0.00000000
      0.11333333	     -9.36484936	     -0.09227165	      1.89930023	      2.10301715	      1.02446186	      1.02471661	     39.71101544	     -0.77539249	     -1.24947392	     87.68204092	      1.53034031	     -4.87518622	    -22.65167749	      0.00000000	      4.22889880	     -1.92984863	    -14.19952533	     33.48109416	      0.58435533	     17.81703808	      9.63779569	      0.00000000
      0.12000000	     -9.41390282	     -0.97092587	      1.64808103	      2.10537088	      1.03044549	      1.02489140	     40.04872680	      0.15138225	     -1.82349868	     84.40716338	      1.47318291	     -4.31417179	    -22.86851694	      0.00000000	      2.17668630	     -2.86253710	    -14.89975324	     31.56917786	      0.55098610	     14.36793349	      9.71613657	      0.00000000
      0.12666667	    -10.41853124	     -1.37400757	      1.36571511	      2.10716893	      1.03461550	      1.02524027	     41.48658443	      0.59289951	     -2.13815781	     81.28395716	      1.41867268	     -3.60614484	    -22.80765575	      0.00000000	      1.41082904	     -3.32644111	    -15.79398638	     30.10131620	      0.52536708	     10.80266944	      9.88271969	      0.00000000
